PathFileType	4	(X/Y/Z)	C:/Users/opensim2020/Desktop/walking_exp_matlab/subject06_walking19_straight_02.trc	
DataRate	CameraRate	NumFrames	NumMarkers	Units	OrigDataRate	OrigDataStartFrame	OrigNumFrames	
100.00	100.00	4	49	mm	100.00	2483	332	
Frame#	Time	LFHD			RFHD			LBHD			RBHD			C7			T10			CLAV			STRN			RBAK			LSHO			LUPA			LELB			LFRM			LWRA			LWRB			LFIN			RSHO			RUPA			RELB			RFRM			RWRA			RWRB			RFIN			LASI			RASI			LPSI			RPSI			LTHI			LKNE			LTIB			LANK			LHEE			LTOE			RTHI			RKNE			RTIB			RANK			RHEE			RTOE			*39			*40			*41			*42			*43			*44			*45			*46			*47			*48			
		X1	Y1	Z1	X2	Y2	Z2	X3	Y3	Z3	X4	Y4	Z4	X5	Y5	Z5	X6	Y6	Z6	X7	Y7	Z7	X8	Y8	Z8	X9	Y9	Z9	X10	Y10	Z10	X11	Y11	Z11	X12	Y12	Z12	X13	Y13	Z13	X14	Y14	Z14	X15	Y15	Z15	X16	Y16	Z16	X17	Y17	Z17	X18	Y18	Z18	X19	Y19	Z19	X20	Y20	Z20	X21	Y21	Z21	X22	Y22	Z22	X23	Y23	Z23	X24	Y24	Z24	X25	Y25	Z25	X26	Y26	Z26	X27	Y27	Z27	X28	Y28	Z28	X29	Y29	Z29	X30	Y30	Z30	X31	Y31	Z31	X32	Y32	Z32	X33	Y33	Z33	X34	Y34	Z34	X35	Y35	Z35	X36	Y36	Z36	X37	Y37	Z37	X38	Y38	Z38	X39	Y39	Z39	X40	Y40	Z40	X41	Y41	Z41	X42	Y42	Z42	X43	Y43	Z43	X44	Y44	Z44	X45	Y45	Z45	X46	Y46	Z46	X47	Y47	Z47	X48	Y48	Z48	X49	Y49	Z49	

291	2.900	-910.96490	-474.32452	1657.77893	-1042.56262	-483.30594	1652.88440	-921.70221	-344.63275	1596.56604	-1051.26013	-355.04965	1596.59863	-980.31580	-353.62427	1444.31653	-994.19440	-328.06876	1114.48169	-981.38202	-465.01688	1369.69897	-980.46912	-508.33655	1195.02393	-1064.35583	-285.43500	1274.55444	-818.58740	-410.80237	1397.25244	-752.32050	-397.77814	1193.95386	-743.31110	-385.88940	1082.16968	-719.10675	-406.65344	933.41400	-754.09381	-472.29092	819.62689	-723.19891	-407.72504	814.12677	-718.60718	-449.21585	733.06659	-1142.54565	-422.18304	1402.62268	-1233.24597	-387.49463	1204.44531	-1244.93762	-399.28995	1083.02808	-1258.21399	-434.23166	967.95557	-1219.03674	-519.32971	845.07239	-1261.07092	-467.84320	834.97632	-1258.36719	-518.30078	766.58093	-889.17487	-517.61560	964.27472	-1107.36829	-504.23990	959.70422	-907.37866	-358.85065	986.78827	-1075.28186	-355.72159	984.42932	-816.42804	-487.55048	652.13275	-838.24792	-511.23022	491.84869	-837.10797	-521.16486	235.56148	-876.63739	-549.32104	63.68836	-923.05200	-511.75192	44.42057	-893.76105	-696.17358	43.93713	-1153.64551	-413.81357	621.79871	-1135.34607	-395.87366	496.10947	-1137.42920	-225.89194	286.01157	-1101.80273	-109.81054	137.15938	-1060.87683	-60.56477	137.68581	-1083.29443	-219.84105	31.49143	-974.97314	-376.25888	1693.50793																											 
292	2.910	-909.26135	-480.98831	1658.53333	-1040.84875	-489.84985	1653.73425	-919.91028	-351.42368	1597.14551	-1049.42566	-361.73022	1597.34778	-978.49438	-360.80450	1444.85876	-991.82593	-335.60599	1115.07947	-979.65692	-472.10748	1370.47583	-978.66089	-515.80389	1195.85083	-1062.31091	-292.77921	1275.08386	-816.84967	-417.85260	1398.29761	-750.37396	-405.81149	1195.00708	-741.32196	-394.75180	1083.11768	-717.18335	-416.77481	934.53357	-752.47620	-482.96707	821.35254	-721.48352	-419.33371	815.11407	-716.81445	-461.35098	734.60120	-1140.68103	-429.23553	1403.30054	-1231.67957	-394.73749	1205.33179	-1242.93823	-405.95221	1083.68567	-1256.42456	-439.51498	968.19543	-1217.40576	-523.08655	843.99780	-1259.58521	-471.49249	834.71399	-1256.86658	-520.81665	765.44794	-887.76697	-525.34528	964.64764	-1106.11499	-511.55814	960.70313	-905.31439	-366.76553	987.47791	-1073.12183	-363.00110	985.14349	-815.07593	-493.28745	652.24182	-836.57379	-515.64758	491.73868	-836.44293	-523.34131	235.36833	-876.65393	-550.10486	63.45727	-922.96570	-512.36847	44.68539	-893.77045	-696.90820	42.59186	-1152.79883	-422.61542	622.59662	-1135.74780	-406.06635	496.42480	-1137.37915	-233.42047	289.01599	-1101.55615	-114.86396	142.12744	-1060.38672	-66.23549	144.35226	-1082.99573	-220.62781	31.84656	-973.17084	-382.80496	1694.18713																											 
293	2.920	-907.57373	-487.67188	1659.18628	-1039.16296	-496.34732	1654.45068	-918.18091	-358.24139	1597.52698	-1047.76392	-368.38458	1597.69739	-976.68512	-367.89893	1445.27136	-989.51941	-343.01895	1115.54126	-978.00256	-479.12637	1370.99341	-976.83844	-523.24835	1196.53003	-1060.17981	-299.98193	1275.39099	-815.16119	-424.93716	1399.20679	-748.33722	-413.78534	1195.92090	-739.22058	-403.53717	1083.93738	-715.13727	-427.14813	935.54071	-750.43817	-494.50516	823.17499	-719.80927	-430.86743	816.26373	-715.02417	-473.57379	736.03339	-1138.90271	-436.20096	1403.74121	-1229.98816	-401.73276	1205.87634	-1240.96399	-412.54694	1084.09778	-1254.66260	-444.92560	968.24194	-1215.87561	-526.92224	842.88489	-1258.12842	-475.21857	834.27252	-1255.13403	-523.84290	764.37518	-886.32196	-532.92004	964.99774	-1104.59216	-518.70135	961.57983	-903.24316	-374.15826	988.21503	-1071.02136	-370.07822	985.66833	-813.67139	-499.20346	652.44391	-835.03607	-520.23492	491.63049	-835.84094	-526.01660	235.23277	-876.87054	-550.95001	63.47543	-923.03467	-512.92609	44.98039	-894.39178	-697.66064	41.45002	-1152.54041	-431.25186	623.04852	-1136.34839	-416.45508	496.59814	-1137.57971	-241.30127	291.96472	-1101.44653	-120.37804	147.22049	-1060.04749	-72.21782	150.93295	-1082.67139	-221.32266	32.55801	-971.42175	-389.32956	1694.63000																											 
294	2.930	-906.01880	-494.22537	1659.65955	-1037.56519	-502.83914	1655.00464	-916.48486	-364.97479	1597.64050	-1046.02734	-375.05200	1597.92468	-975.17554	-374.90903	1445.70422	-987.28790	-350.22165	1115.93176	-976.30029	-486.25543	1371.44507	-975.08417	-530.53979	1196.97754	-1057.89441	-307.16199	1275.59631	-813.49011	-432.13034	1399.87720	-746.27283	-421.82693	1196.62573	-737.05298	-412.46710	1084.52954	-713.10638	-437.46454	936.38446	-748.66565	-505.59552	824.43640	-717.93945	-442.08344	816.99915	-713.24890	-486.10757	737.37762	-1137.16760	-443.11719	1404.03992	-1228.14624	-408.39978	1206.16895	-1239.01184	-419.12958	1084.26355	-1252.94568	-450.36230	968.06592	-1214.46167	-530.81488	841.66150	-1256.76575	-479.05521	833.80872	-1253.70264	-526.74316	763.17853	-884.79987	-540.40283	965.23553	-1103.17004	-525.64014	962.17834	-901.19012	-381.43442	988.67139	-1068.99011	-377.08145	985.94678	-812.37671	-505.25531	652.61658	-833.63287	-524.98083	491.54788	-835.40045	-529.13953	235.10320	-877.28217	-551.95508	63.36805	-923.16772	-513.46942	45.33951	-895.47479	-698.38300	40.17100	-1152.30212	-440.32089	623.86218	-1137.03748	-427.11737	496.56659	-1137.86548	-249.56685	294.82355	-1101.64502	-125.97290	152.46492	-1060.09937	-78.34637	157.89395	-1082.67456	-222.73125	33.74026	-969.73291	-395.84256	1694.92322																											 
